<svg width="20" height="18" viewBox="0 0 20 18" fill="none" xmlns="http://www.w3.org/2000/svg">
<path d="M17 0.592773C17.5304 0.592773 18.0391 0.803487 18.4142 1.17856C18.7893 1.55363 19 2.06234 19 2.59277V14.5928C19 15.1232 18.7893 15.6319 18.4142 16.007C18.0391 16.3821 17.5304 16.5928 17 16.5928H3C2.46957 16.5928 1.96086 16.3821 1.58579 16.007C1.21071 15.6319 1 15.1232 1 14.5928V2.59277C1 2.06234 1.21071 1.55363 1.58579 1.17856C1.96086 0.803487 2.46957 0.592773 3 0.592773H17ZM17 6.59277H3V13.5928C3.00003 13.8377 3.08996 14.0741 3.25272 14.2571C3.41547 14.4402 3.63975 14.5571 3.883 14.5858L4 14.5928H16C16.2449 14.5927 16.4813 14.5028 16.6644 14.3401C16.8474 14.1773 16.9643 13.953 16.993 13.7098L17 13.5928V6.59277ZM4 2.59277C3.73478 2.59277 3.48043 2.69813 3.29289 2.88567C3.10536 3.0732 3 3.32756 3 3.59277C3 3.85799 3.10536 4.11234 3.29289 4.29988C3.48043 4.48742 3.73478 4.59277 4 4.59277C4.26522 4.59277 4.51957 4.48742 4.70711 4.29988C4.89464 4.11234 5 3.85799 5 3.59277C5 3.32756 4.89464 3.0732 4.70711 2.88567C4.51957 2.69813 4.26522 2.59277 4 2.59277ZM7 2.59277C6.73478 2.59277 6.48043 2.69813 6.29289 2.88567C6.10536 3.0732 6 3.32756 6 3.59277C6 3.85799 6.10536 4.11234 6.29289 4.29988C6.48043 4.48742 6.73478 4.59277 7 4.59277C7.26522 4.59277 7.51957 4.48742 7.70711 4.29988C7.89464 4.11234 8 3.85799 8 3.59277C8 3.32756 7.89464 3.0732 7.70711 2.88567C7.51957 2.69813 7.26522 2.59277 7 2.59277ZM10 2.59277C9.73478 2.59277 9.48043 2.69813 9.29289 2.88567C9.10536 3.0732 9 3.32756 9 3.59277C9 3.85799 9.10536 4.11234 9.29289 4.29988C9.48043 4.48742 9.73478 4.59277 10 4.59277C10.2652 4.59277 10.5196 4.48742 10.7071 4.29988C10.8946 4.11234 11 3.85799 11 3.59277C11 3.32756 10.8946 3.0732 10.7071 2.88567C10.5196 2.69813 10.2652 2.59277 10 2.59277Z" fill="#557FFF"/>
</svg>
