<svg width="98" height="25" viewBox="0 0 98 25" fill="none" xmlns="http://www.w3.org/2000/svg">
<g clip-path="url(#clip0_9001_896)">
<path d="M21.0907 12.1263C17.5025 11.8808 14.6468 9.0251 14.4027 5.43829L14.0305 0L13.6597 5.43697C13.4143 9.0251 10.5585 11.8808 6.97172 12.125L0 12.4971L6.9704 12.8679C10.5585 13.1134 13.4143 15.9691 13.6584 19.5559L14.0292 24.9929L14.4 19.5559C14.6455 15.9678 17.5012 13.1121 21.088 12.8679L35.9988 12.4971L21.088 12.1263H21.0907Z" fill="#1A51F4"/>
<path d="M16.142 2.0151C16.6303 1.74721 17.1357 1.50967 17.653 1.29325C18.1716 1.08078 18.7047 0.89999 19.2511 0.753509C19.7961 0.604388 20.3583 0.506734 20.9297 0.459226C21.5011 0.414358 22.0844 0.422276 22.665 0.52257C23.2457 0.618904 23.821 0.818172 24.3449 1.12829C24.8688 1.43709 25.3307 1.86729 25.6804 2.37404C26.0328 2.88079 26.2716 3.45616 26.4142 4.04208C26.558 4.62933 26.6147 5.22977 26.6068 5.82097C26.5989 6.4135 26.5263 6.99546 26.4207 7.56819C26.3719 7.85588 26.298 8.13696 26.2294 8.41937C26.1489 8.69781 26.075 8.97758 25.9813 9.25075C25.8955 9.52656 25.7913 9.79444 25.6923 10.0663C25.6395 10.1996 25.5841 10.3329 25.53 10.4661L25.4468 10.6654L25.3584 10.862L25.1803 11.254L24.9902 11.6393L24.8952 11.832L24.7949 12.022L24.593 12.4008C24.0401 13.4024 23.4067 14.3538 22.7244 15.267C22.0382 16.1763 21.2899 17.0367 20.5008 17.8549C19.7077 18.6691 18.8671 19.4385 17.9842 20.1564C17.0961 20.869 16.1644 21.5288 15.1866 22.1187C14.21 22.7099 13.1833 23.2259 12.1131 23.6455C11.5747 23.8501 11.0283 24.0348 10.4688 24.1839C9.90794 24.3278 9.33521 24.4399 8.75457 24.5059C8.17392 24.5745 7.58008 24.5825 6.98755 24.5244C6.39503 24.465 5.79987 24.3317 5.24165 24.0902C4.68344 23.8501 4.16086 23.5017 3.74253 23.0556C3.3242 22.6096 3.01012 22.0764 2.81085 21.5156C2.61291 20.9534 2.51789 20.3688 2.49942 19.7921C2.49018 19.5031 2.4981 19.2168 2.51921 18.9317C2.54165 18.6467 2.58124 18.3643 2.63138 18.0858C2.68285 17.8074 2.74619 17.5316 2.81613 17.2584C2.89003 16.9865 2.96921 16.7173 3.06027 16.4521C3.24502 15.9229 3.45748 15.4056 3.70162 14.9041C3.53007 15.4346 3.37039 15.9665 3.25294 16.5062C3.19091 16.7754 3.13945 17.0459 3.09458 17.3178C3.05235 17.5896 3.01804 17.8615 2.99561 18.1333C2.97449 18.4052 2.96525 18.6783 2.96393 18.9489C2.96657 19.2194 2.98109 19.4886 3.01276 19.7552C3.07347 20.287 3.20543 20.8043 3.41658 21.2767C3.6264 21.7492 3.91804 22.1741 4.28755 22.5159C4.65573 22.8577 5.09253 23.115 5.56629 23.2852C6.04004 23.4555 6.54679 23.5452 7.06277 23.569C7.57876 23.5927 8.10266 23.5597 8.6226 23.4766C9.14254 23.3948 9.65985 23.2707 10.1706 23.1177C10.6799 22.9606 11.1827 22.7745 11.6776 22.5674C12.6621 22.1371 13.6214 21.6357 14.532 21.0524C15.4452 20.4731 16.3267 19.8383 17.1621 19.1455C18.0001 18.4566 18.7998 17.7176 19.5559 16.9364C21.0735 15.3819 22.4169 13.6544 23.507 11.7884L23.7049 11.4361L23.8039 11.2593L23.8976 11.0798L24.085 10.7208L24.2605 10.3579L24.3476 10.1758L24.4294 9.99107L24.593 9.62289C24.6933 9.37479 24.7989 9.12802 24.886 8.87465C24.9823 8.62391 25.0575 8.36922 25.1407 8.11585C25.2106 7.85984 25.2858 7.60382 25.3426 7.34649C25.4614 6.83183 25.5471 6.30924 25.5762 5.7893C25.6026 5.26936 25.5828 4.75205 25.4864 4.25323C25.3914 3.75572 25.2199 3.278 24.9625 2.85308C24.7065 2.42683 24.3555 2.06128 23.9398 1.77492C23.5254 1.48855 23.0451 1.28401 22.537 1.15732C22.0289 1.02668 21.4945 0.972571 20.9548 0.971251C20.415 0.971251 19.8713 1.02536 19.3316 1.11245C18.7905 1.20087 18.2534 1.32624 17.7229 1.48328C17.1911 1.63372 16.6659 1.81847 16.1459 2.01774L16.142 2.0151Z" fill="#1A51F4"/>
<path d="M50.2893 12.5457C50.2893 17.3677 47.0904 21.2686 41.7604 21.2686C36.4303 21.2686 33.2314 17.3677 33.2314 12.5457C33.2314 7.72364 36.4303 3.82275 41.7604 3.82275C47.0904 3.82275 50.2893 7.72364 50.2893 12.5457ZM46.9941 12.5457C46.9941 9.32306 45.0318 6.72995 41.7604 6.72995C38.4889 6.72995 36.5266 9.32306 36.5266 12.5457C36.5266 15.7682 38.4889 18.3614 41.7604 18.3614C45.0318 18.3614 46.9941 15.7682 46.9941 12.5457Z" fill="white"/>
<path d="M55.1325 10.7773C55.9084 9.00901 56.6105 8.08789 59.7367 8.08789V11.2379C56.1262 10.9951 55.0849 12.2791 55.0849 15.5268V21.0759H51.9838V8.28188H55.0849V8.98393C55.0849 9.54083 54.9398 10.0265 54.722 10.4619C54.6257 10.6797 54.5518 10.9713 54.8434 11.0188C54.9886 11.0426 55.11 10.8486 55.1338 10.776L55.1325 10.7773Z" fill="white"/>
<path d="M63.9833 8.76631C63.9833 9.2757 63.8619 9.66236 63.6441 10.0992C63.5478 10.342 63.3776 10.6323 63.6204 10.7537C63.8632 10.8751 64.0084 10.5597 64.0572 10.4634C64.8331 9.10678 66.1172 8.08933 68.1032 8.08933C71.4222 8.08933 73.6761 10.9965 73.6761 14.6797C73.6761 18.3628 71.4222 21.27 68.1032 21.27C66.1647 21.27 64.8318 20.2763 64.0572 18.8709C64.0084 18.7983 63.912 18.5555 63.6943 18.6281C63.4277 18.7244 63.524 18.9672 63.6455 19.21C63.8632 19.6455 63.9846 20.0335 63.9846 20.5191V21.076H60.8834V3.62891H63.9846V8.76499L63.9833 8.76631ZM70.5749 14.6784C70.5749 12.6434 69.5575 10.8989 67.3761 10.8989C65.3412 10.8989 63.9833 12.6434 63.9833 14.6784C63.9833 16.7133 65.3399 18.4578 67.3761 18.4578C69.5562 18.4578 70.5749 16.7133 70.5749 14.6784Z" fill="white"/>
<path d="M75.2598 3.62891H78.3609V6.73009H75.2598V3.62891ZM75.2598 8.282H78.3609V21.076H75.2598V8.282Z" fill="white"/>
<path d="M84.7969 10.9952V16.8346C84.7969 18.2401 84.8206 18.3615 86.1297 18.3615H88.286V21.0747H85.4752C82.9071 21.0747 81.6957 20.2262 81.6957 17.1487V10.9939H79.3691V8.28066H81.6957V4.7915H84.7969V8.28066H88.286V10.9939H84.7969V10.9952Z" fill="white"/>
<path d="M94.5107 10.9952V16.8346C94.5107 18.2401 94.5345 18.3615 95.8436 18.3615H97.9999V21.0747H95.189C92.621 21.0747 91.4096 20.2262 91.4096 17.1487V10.9939H89.083V8.28066H91.4096V4.7915H94.5107V8.28066H97.9999V10.9939H94.5107V10.9952Z" fill="white"/>
</g>
<defs>
<clipPath id="clip0_9001_896">
<rect width="98" height="24.9942" fill="white"/>
</clipPath>
</defs>
</svg>
