<svg width="18" height="18" viewBox="0 0 18 18" fill="none" xmlns="http://www.w3.org/2000/svg">
<path fill-rule="evenodd" clip-rule="evenodd" d="M5.625 1.125C5.02826 1.125 4.45597 1.36205 4.03401 1.78401C3.61205 2.20597 3.375 2.77826 3.375 3.375V14.625C3.375 15.2217 3.61205 15.794 4.03401 16.216C4.45597 16.6379 5.02826 16.875 5.625 16.875H12.375C12.9717 16.875 13.544 16.6379 13.966 16.216C14.3879 15.794 14.625 15.2217 14.625 14.625V3.375C14.625 2.77826 14.3879 2.20597 13.966 1.78401C13.544 1.36205 12.9717 1.125 12.375 1.125H5.625ZM6.46875 7.875C6.24497 7.875 6.03036 7.96389 5.87213 8.12213C5.71389 8.28036 5.625 8.49497 5.625 8.71875C5.625 8.94253 5.71389 9.15714 5.87213 9.31537C6.03036 9.4736 6.24497 9.5625 6.46875 9.5625C6.69253 9.5625 6.90714 9.4736 7.06537 9.31537C7.22361 9.15714 7.3125 8.94253 7.3125 8.71875C7.3125 8.49497 7.22361 8.28036 7.06537 8.12213C6.90714 7.96389 6.69253 7.875 6.46875 7.875ZM5.625 4.21875C5.625 3.99497 5.71389 3.78036 5.87213 3.62213C6.03036 3.46389 6.24497 3.375 6.46875 3.375H11.5312C11.755 3.375 11.9696 3.46389 12.1279 3.62213C12.2861 3.78036 12.375 3.99497 12.375 4.21875C12.375 4.44253 12.2861 4.65714 12.1279 4.81537C11.9696 4.97361 11.755 5.0625 11.5312 5.0625H6.46875C6.24497 5.0625 6.03036 4.97361 5.87213 4.81537C5.71389 4.65714 5.625 4.44253 5.625 4.21875ZM6.46875 12.9375C6.24497 12.9375 6.03036 13.0264 5.87213 13.1846C5.71389 13.3429 5.625 13.5575 5.625 13.7812C5.625 14.005 5.71389 14.2196 5.87213 14.3779C6.03036 14.5361 6.24497 14.625 6.46875 14.625C6.69253 14.625 6.90714 14.5361 7.06537 14.3779C7.22361 14.2196 7.3125 14.005 7.3125 13.7812C7.3125 13.5575 7.22361 13.3429 7.06537 13.1846C6.90714 13.0264 6.69253 12.9375 6.46875 12.9375ZM5.625 11.25C5.625 11.0262 5.71389 10.8116 5.87213 10.6534C6.03036 10.4951 6.24497 10.4062 6.46875 10.4062C6.69253 10.4062 6.90714 10.4951 7.06537 10.6534C7.22361 10.8116 7.3125 11.0262 7.3125 11.25C7.3125 11.4738 7.22361 11.6884 7.06537 11.8466C6.90714 12.0049 6.69253 12.0938 6.46875 12.0938C6.24497 12.0938 6.03036 12.0049 5.87213 11.8466C5.71389 11.6884 5.625 11.4738 5.625 11.25ZM11.5312 7.875C11.3075 7.875 11.0929 7.96389 10.9346 8.12213C10.7764 8.28036 10.6875 8.49497 10.6875 8.71875C10.6875 8.94253 10.7764 9.15714 10.9346 9.31537C11.0929 9.4736 11.3075 9.5625 11.5312 9.5625C11.755 9.5625 11.9696 9.4736 12.1279 9.31537C12.2861 9.15714 12.375 8.94253 12.375 8.71875C12.375 8.49497 12.2861 8.28036 12.1279 8.12213C11.9696 7.96389 11.755 7.875 11.5312 7.875ZM10.6875 11.25C10.6875 11.0262 10.7764 10.8116 10.9346 10.6534C11.0929 10.4951 11.3075 10.4062 11.5312 10.4062C11.755 10.4062 11.9696 10.4951 12.1279 10.6534C12.2861 10.8116 12.375 11.0262 12.375 11.25V13.7812C12.375 14.005 12.2861 14.2196 12.1279 14.3779C11.9696 14.5361 11.755 14.625 11.5312 14.625C11.3075 14.625 11.0929 14.5361 10.9346 14.3779C10.7764 14.2196 10.6875 14.005 10.6875 13.7812V11.25ZM9 7.875C8.77622 7.875 8.56161 7.96389 8.40338 8.12213C8.24514 8.28036 8.15625 8.49497 8.15625 8.71875C8.15625 8.94253 8.24514 9.15714 8.40338 9.31537C8.56161 9.4736 8.77622 9.5625 9 9.5625C9.22378 9.5625 9.43839 9.4736 9.59662 9.31537C9.75485 9.15714 9.84375 8.94253 9.84375 8.71875C9.84375 8.49497 9.75485 8.28036 9.59662 8.12213C9.43839 7.96389 9.22378 7.875 9 7.875ZM8.15625 13.7812C8.15625 13.5575 8.24514 13.3429 8.40338 13.1846C8.56161 13.0264 8.77622 12.9375 9 12.9375C9.22378 12.9375 9.43839 13.0264 9.59662 13.1846C9.75485 13.3429 9.84375 13.5575 9.84375 13.7812C9.84375 14.005 9.75485 14.2196 9.59662 14.3779C9.43839 14.5361 9.22378 14.625 9 14.625C8.77622 14.625 8.56161 14.5361 8.40338 14.3779C8.24514 14.2196 8.15625 14.005 8.15625 13.7812ZM9 10.4062C8.77622 10.4062 8.56161 10.4951 8.40338 10.6534C8.24514 10.8116 8.15625 11.0262 8.15625 11.25C8.15625 11.4738 8.24514 11.6884 8.40338 11.8466C8.56161 12.0049 8.77622 12.0938 9 12.0938C9.22378 12.0938 9.43839 12.0049 9.59662 11.8466C9.75485 11.6884 9.84375 11.4738 9.84375 11.25C9.84375 11.0262 9.75485 10.8116 9.59662 10.6534C9.43839 10.4951 9.22378 10.4062 9 10.4062Z" fill="#1A51F4"/>
</svg>
