<svg width="105" height="36" viewBox="0 0 105 36" fill="none" xmlns="http://www.w3.org/2000/svg">
<g clip-path="url(#clip0_7133_3147)">
<mask id="mask0_7133_3147" style="mask-type:luminance" maskUnits="userSpaceOnUse" x="0" y="0" width="36" height="36">
<path d="M35.7961 0.962891H0.85498V35.8113H35.7961V0.962891Z" fill="white"/>
</mask>
<g mask="url(#mask0_7133_3147)">
<mask id="mask1_7133_3147" style="mask-type:alpha" maskUnits="userSpaceOnUse" x="-7" y="1" width="43" height="42">
<path fill-rule="evenodd" clip-rule="evenodd" d="M29.1926 24.4938C32.8749 22.2977 35.3402 18.282 35.3402 13.6919C35.3402 6.74603 29.6945 1.11523 22.7302 1.11523C17.8147 1.11523 13.5562 3.92019 11.4759 8.01279L-6.26855 25.7101L10.8522 42.7856L29.1926 24.4938Z" fill="#795E5E"/>
</mask>
<g mask="url(#mask1_7133_3147)">
<path fill-rule="evenodd" clip-rule="evenodd" d="M22.519 0.204857L22.5255 0.198242C20.5377 0.235398 18.6176 0.769526 16.9663 1.81413C15.728 3.12733 14.5161 4.46698 13.3433 5.84336C12.0665 7.33853 10.8349 8.8743 9.66326 10.4611C9.22735 11.0572 8.79791 11.6618 8.39249 12.2905C9.02279 11.8861 9.6291 11.4578 10.2267 11.0231C10.9317 10.5039 11.6278 9.97345 12.3137 9.43299C15.6664 6.79476 18.8078 3.90616 21.8252 0.909343C22.0569 0.675697 22.2874 0.440814 22.519 0.204857ZM21.0324 8.0533C23.269 5.79745 25.4849 3.51435 27.6381 1.17534C26.7391 0.809504 25.8163 0.545495 24.8923 0.386001C22.8995 2.23744 20.9447 4.12905 19.0111 6.03736C16.7864 8.27636 14.5836 10.5439 12.4435 12.8673C9.34007 16.2321 6.36238 19.7135 3.62471 23.3989C6.96296 20.9313 10.1362 18.2705 13.2039 15.4957C15.8776 13.0811 18.4737 10.5825 21.0324 8.0533ZM31.4766 3.5056C28.3201 6.9914 25.0468 10.3695 21.7339 13.7038C19.7465 15.6708 17.744 17.6226 15.7123 19.5431C11.2744 23.7399 6.69843 27.7922 1.8418 31.5272C5.67235 26.5728 9.8361 21.9111 14.1472 17.3897C15.9808 15.4677 17.8398 13.5708 19.7126 11.6878C22.973 8.46637 26.2758 5.28068 29.6779 2.20504C30.2998 2.58521 30.9017 3.0181 31.4766 3.5056ZM34.4473 6.91852C34.0617 6.30269 33.6221 5.70793 33.1302 5.1402C29.6329 8.29054 26.2425 11.5585 22.8972 14.8648C20.9239 16.848 18.9646 18.8474 17.0367 20.876C12.8299 25.3009 8.77033 29.8639 5.02634 34.7042C9.98489 30.8902 14.6525 26.7465 19.1782 22.4545C21.1131 20.618 23.0227 18.7563 24.9185 16.8807C28.1562 13.6213 31.357 10.3206 34.4473 6.91852ZM35.4938 8.94027C35.868 9.82451 36.1414 10.7337 36.3124 11.6442C34.4365 13.6563 32.5154 15.6277 30.5801 17.5806C28.313 19.8214 26.0162 22.0392 23.6621 24.1955C20.3105 27.2686 16.8418 30.214 13.1724 32.9262C15.6346 29.6113 18.2905 26.461 21.0605 23.4135C23.4911 20.7322 26.0096 18.1298 28.5588 15.5646C30.8328 13.3219 33.1341 11.0997 35.4938 8.94027ZM35.1617 19.2864C36.0719 17.6832 36.5251 15.8578 36.5312 13.9743C36.2591 14.2381 35.9884 14.5032 35.7197 14.7684C32.6809 17.812 29.754 20.9806 27.0845 24.3662C26.5732 25.0148 26.0718 25.671 25.5793 26.3361C25.1423 26.9333 24.7139 27.5369 24.3085 28.1655C24.9388 27.7611 25.5451 27.3328 26.1427 26.8981C27.6046 25.8232 29.0253 24.6985 30.4104 23.5338C32.0387 22.1668 33.6186 20.7449 35.1617 19.2864Z" fill="url(#paint0_linear_7133_3147)"/>
</g>
</g>
<path d="M44.8809 13.0176H47.7114L50.7011 20.2918H50.8283L53.8176 13.0176H56.6482V23.8443H54.4218V16.7974H54.3319L51.5224 23.7914H50.0067L47.1971 16.771H47.1072V23.8443H44.8809V13.0176ZM62.2069 24.0029C61.3697 24.0029 60.6488 23.8337 60.0443 23.4954C59.4438 23.1535 58.9808 22.6707 58.6558 22.0469C58.3305 21.4195 58.168 20.6777 58.168 19.8213C58.168 18.986 58.3305 18.253 58.6558 17.6221C58.9808 16.9912 59.4384 16.4996 60.0287 16.1472C60.6223 15.7947 61.3184 15.6185 62.117 15.6185C62.654 15.6185 63.154 15.7049 63.6171 15.8776C64.0835 16.0467 64.4899 16.3022 64.8359 16.6441C65.186 16.986 65.4581 17.4159 65.6525 17.934C65.8469 18.4486 65.9439 19.0512 65.9439 19.742V20.3605H59.069V18.9649H63.8182C63.8182 18.6406 63.7477 18.3534 63.6062 18.1032C63.4651 17.853 63.269 17.6573 63.018 17.5164C62.7707 17.3719 62.4827 17.2996 62.154 17.2996C61.8113 17.2996 61.5074 17.3789 61.2424 17.5375C60.9809 17.6926 60.776 17.9023 60.6274 18.1666C60.4792 18.4274 60.4032 18.7182 60.3994 19.0389V20.3658C60.3994 20.7675 60.4737 21.1147 60.6223 21.4072C60.7743 21.6997 60.988 21.9253 61.2635 22.0839C61.5393 22.2425 61.866 22.3218 62.2442 22.3218C62.4949 22.3218 62.7249 22.2865 62.9332 22.216C63.1418 22.1456 63.3203 22.0398 63.4685 21.8989C63.6171 21.7579 63.73 21.5852 63.8077 21.3808L65.896 21.5182C65.7902 22.0187 65.5728 22.4557 65.2444 22.8293C64.9191 23.1993 64.4987 23.4883 63.9828 23.6963C63.4702 23.9007 62.8786 24.0029 62.2069 24.0029ZM71.7478 15.7243V17.4159H66.8449V15.7243H71.7478ZM67.9583 13.7788H70.2162V21.3491C70.2162 21.557 70.2481 21.7191 70.3115 21.8354C70.3753 21.9482 70.4635 22.0275 70.5765 22.0733C70.6932 22.1191 70.8275 22.142 70.9795 22.142C71.0853 22.142 71.1915 22.1332 71.2973 22.1156C71.4035 22.0944 71.4846 22.0786 71.5412 22.068L71.8964 23.7438C71.7835 23.7791 71.6244 23.8196 71.4195 23.8654C71.2146 23.9148 70.9652 23.9447 70.6721 23.9553C70.1277 23.9764 69.6507 23.9042 69.2409 23.7385C68.8345 23.5729 68.5183 23.3156 68.2921 22.9667C68.0658 22.6178 67.9545 22.1773 67.9583 21.6451V13.7788ZM76.8418 24.0029C76.0042 24.0029 75.2833 23.8337 74.6792 23.4954C74.0784 23.1535 73.6157 22.6707 73.2903 22.0469C72.9653 21.4195 72.8029 20.6777 72.8029 19.8213C72.8029 18.986 72.9653 18.253 73.2903 17.6221C73.6157 16.9912 74.0733 16.4996 74.6632 16.1472C75.2569 15.7947 75.953 15.6185 76.7515 15.6185C77.2889 15.6185 77.7889 15.7049 78.2516 15.8776C78.7181 16.0467 79.1245 16.3022 79.4708 16.6441C79.8206 16.986 80.0926 17.4159 80.287 17.934C80.4814 18.4486 80.5788 19.0512 80.5788 19.742V20.3605H73.7039V18.9649H78.4531C78.4531 18.6406 78.3826 18.3534 78.2411 18.1032C78.0996 17.853 77.9036 17.6573 77.6529 17.5164C77.4056 17.3719 77.1176 17.2996 76.7888 17.2996C76.4459 17.2996 76.1423 17.3789 75.877 17.5375C75.6158 17.6926 75.4105 17.9023 75.2623 18.1666C75.1137 18.4274 75.0377 18.7182 75.0343 19.0389V20.3658C75.0343 20.7675 75.1086 21.1147 75.2569 21.4072C75.4088 21.6997 75.6226 21.9253 75.8984 22.0839C76.1738 22.2425 76.5008 22.3218 76.8787 22.3218C77.1298 22.3218 77.3594 22.2865 77.5681 22.216C77.7764 22.1456 77.9548 22.0398 78.1034 21.8989C78.2516 21.7579 78.3649 21.5852 78.4426 21.3808L80.5309 21.5182C80.4251 22.0187 80.2076 22.4557 79.8789 22.8293C79.5539 23.1993 79.1333 23.4883 78.6173 23.6963C78.1051 23.9007 77.5131 24.0029 76.8418 24.0029ZM85.7307 24.0029C84.9074 24.0029 84.1953 23.8284 83.5946 23.4795C82.9975 23.1271 82.5365 22.6372 82.2112 22.0099C81.8862 21.379 81.7237 20.6477 81.7237 19.816C81.7237 18.9772 81.8862 18.2441 82.2112 17.6168C82.5365 16.986 82.9975 16.4961 83.5946 16.1472C84.1953 15.7947 84.9074 15.6185 85.7307 15.6185C86.554 15.6185 87.2644 15.7947 87.8614 16.1472C88.4622 16.4961 88.9253 16.986 89.2503 17.6168C89.5756 18.2441 89.7381 18.9772 89.7381 19.816C89.7381 20.6477 89.5756 21.379 89.2503 22.0099C88.9253 22.6372 88.4622 23.1271 87.8614 23.4795C87.2644 23.8284 86.554 24.0029 85.7307 24.0029ZM85.7412 22.2583C86.1161 22.2583 86.4289 22.1526 86.6796 21.9411C86.9306 21.7262 87.1195 21.4336 87.2467 21.0636C87.3774 20.6935 87.4428 20.2724 87.4428 19.8001C87.4428 19.3279 87.3774 18.9067 87.2467 18.5367C87.1195 18.1666 86.9306 17.8741 86.6796 17.6591C86.4289 17.4441 86.1161 17.3366 85.7412 17.3366C85.3633 17.3366 85.0451 17.4441 84.7873 17.6591C84.5329 17.8741 84.3402 18.1666 84.2096 18.5367C84.0824 18.9067 84.0186 19.3279 84.0186 19.8001C84.0186 20.2724 84.0824 20.6935 84.2096 21.0636C84.3402 21.4336 84.5329 21.7262 84.7873 21.9411C85.0451 22.1526 85.3633 22.2583 85.7412 22.2583ZM91.2063 23.8443V15.7243H93.3954V17.141H93.4802C93.6284 16.637 93.8778 16.2564 94.2275 15.9991C94.5773 15.7384 94.9803 15.6079 95.4362 15.6079C95.5492 15.6079 95.6709 15.615 95.8019 15.6291C95.9325 15.6432 96.0475 15.6626 96.1462 15.6872V17.6855C96.0404 17.6538 95.8938 17.6256 95.7062 17.601C95.519 17.5763 95.3476 17.5639 95.1923 17.5639C94.8602 17.5639 94.5633 17.6362 94.3018 17.7807C94.0436 17.9217 93.8387 18.119 93.6868 18.3728C93.5385 18.6265 93.4642 18.919 93.4642 19.2503V23.8443H91.2063ZM99.4022 23.9976C98.8828 23.9976 98.4198 23.9077 98.0134 23.728C97.6069 23.5447 97.2854 23.2751 97.0489 22.9191C96.8155 22.5597 96.6988 22.1121 96.6988 21.5764C96.6988 21.1253 96.7819 20.7464 96.9482 20.4398C97.114 20.1332 97.3403 19.8865 97.6266 19.6997C97.9126 19.5129 98.2379 19.3719 98.6019 19.2768C98.9693 19.1816 99.3543 19.1146 99.7573 19.0759C100.231 19.0265 100.613 18.9807 100.902 18.9384C101.192 18.8926 101.402 18.8257 101.533 18.7375C101.664 18.6494 101.729 18.519 101.729 18.3463V18.3146C101.729 17.9798 101.623 17.7208 101.411 17.5375C101.202 17.3542 100.906 17.2626 100.521 17.2626C100.114 17.2626 99.7909 17.3525 99.5508 17.5322C99.3102 17.7084 99.1511 17.9305 99.0735 18.1983L96.9851 18.0292C97.0913 17.5358 97.2996 17.1093 97.6107 16.7498C97.9214 16.3868 98.3227 16.1084 98.8139 15.9146C99.3085 15.7172 99.8808 15.6185 100.531 15.6185C100.983 15.6185 101.417 15.6714 101.83 15.7771C102.247 15.8828 102.616 16.0467 102.938 16.2688C103.263 16.4908 103.519 16.7763 103.706 17.1252C103.894 17.4706 103.987 17.8847 103.987 18.3675V23.8443H101.846V22.7183H101.782C101.651 22.972 101.477 23.1958 101.257 23.3896C101.038 23.5799 100.775 23.7298 100.468 23.839C100.16 23.9447 99.8052 23.9976 99.4022 23.9976ZM100.049 22.4434C100.381 22.4434 100.674 22.3782 100.929 22.2477C101.183 22.1138 101.383 21.9341 101.528 21.7085C101.673 21.483 101.745 21.2275 101.745 20.942V20.0803C101.674 20.1261 101.577 20.1684 101.454 20.2072C101.333 20.2424 101.197 20.2759 101.045 20.3076C100.893 20.3358 100.741 20.3622 100.589 20.3869C100.438 20.4081 100.3 20.4274 100.176 20.4451C99.911 20.4838 99.6797 20.5455 99.4816 20.6301C99.2838 20.7147 99.1301 20.8292 99.0205 20.9737C98.911 21.1147 98.8563 21.2909 98.8563 21.5024C98.8563 21.809 98.9676 22.0434 99.1902 22.2055C99.4164 22.3641 99.7024 22.4434 100.049 22.4434Z" fill="white"/>
</g>
<defs>
<linearGradient id="paint0_linear_7133_3147" x1="29.7851" y1="77.1405" x2="71.3266" y2="27.511" gradientUnits="userSpaceOnUse">
<stop stop-color="#FF2189"/>
<stop offset="1" stop-color="#FF9D00"/>
</linearGradient>
<clipPath id="clip0_7133_3147">
<rect width="104.145" height="34.8484" fill="white" transform="translate(0.85498 0.962891)"/>
</clipPath>
</defs>
</svg>
