<svg width="111" height="18" viewBox="0 0 111 18" fill="none" xmlns="http://www.w3.org/2000/svg">
<g clip-path="url(#clip0_7133_3135)">
<path d="M35.1495 13.9385C34.936 13.532 34.8009 13.0818 34.744 12.5882C34.687 12.08 34.6586 11.383 34.6586 10.4973C34.6586 9.65519 34.5447 8.92193 34.3169 8.29758C34.0893 7.67323 33.6197 7.36106 32.9079 7.36106C32.6376 7.36106 32.3672 7.44819 32.0967 7.62242C31.8405 7.78214 31.6485 7.98541 31.5203 8.23226C31.321 8.62427 31.1859 9.0526 31.1147 9.51725C31.0434 9.96734 31.0079 10.4901 31.0079 11.0854C31.0079 11.4629 31.0294 11.8477 31.072 12.2397C31.072 12.3559 31.0792 12.5446 31.0932 12.806C31.1218 13.0528 31.1361 13.2779 31.1361 13.4811C31.1361 14.3523 30.8371 14.7879 30.2394 14.7879C29.4566 14.7879 29.0439 14.3668 29.0012 13.5247C29.0012 12.9294 29.0084 12.6099 29.0224 12.5664V11.6299C29.0224 11.1072 29.0012 10.599 28.9585 10.1053C28.9157 9.61163 28.8659 9.24137 28.8091 8.99452C28.6809 8.51538 28.5101 8.14513 28.2966 7.88376C28.0974 7.62242 27.7771 7.49175 27.336 7.49175C26.7097 7.49175 26.2045 7.76761 25.8202 8.31936C25.5497 8.75496 25.3719 9.28492 25.2864 9.90927C25.2011 10.7078 25.137 11.3395 25.0943 11.8041C25.066 12.2542 25.0517 12.7769 25.0517 13.3722C25.0517 13.7933 24.9804 14.1345 24.8382 14.3959C24.7102 14.6572 24.4609 14.7879 24.0911 14.7879C23.8206 14.7879 23.5359 14.7153 23.237 14.5701C22.9525 14.4104 22.81 14.1998 22.81 13.9385C22.81 13.6626 22.8386 13.3868 22.8955 13.1109C23.0235 12.2833 23.0876 10.8022 23.0876 8.66784C23.0876 8.31936 23.0023 7.98541 22.8314 7.66599C22.6749 7.33203 22.4828 7.16504 22.255 7.16504C22.1981 7.16504 22.0913 7.19409 21.9348 7.25217C21.7924 7.31025 21.6857 7.33928 21.6145 7.33928C21.4295 7.33928 21.2587 7.25217 21.1022 7.07793C20.9598 6.9037 20.8887 6.75849 20.8887 6.64233C20.8887 6.27935 21.0595 5.97442 21.401 5.72759C21.7569 5.46623 22.1269 5.33556 22.5112 5.33556C23.0378 5.33556 23.4861 5.50255 23.8561 5.83648C24.2262 6.17044 24.5107 6.63507 24.7102 7.23039C25.0374 6.6496 25.4787 6.18497 26.0337 5.83648C26.5887 5.4735 27.2078 5.29199 27.891 5.29199C28.318 5.29199 28.6595 5.35007 28.9157 5.46623C29.1861 5.56787 29.4068 5.72032 29.5776 5.92361C29.7483 6.11236 29.9689 6.40275 30.2394 6.79479C30.5952 6.33016 31.0506 5.96717 31.6058 5.70581C32.1751 5.44447 32.7585 5.31377 33.3563 5.31377C34.0679 5.31377 34.7084 5.61144 35.2777 6.20673C35.847 6.78754 36.2312 7.4627 36.4306 8.23226C36.5302 8.62427 36.58 9.37931 36.58 10.4973L36.6653 11.7605C36.7366 12.5156 36.9785 12.9729 37.3912 13.1327C37.8752 13.2779 38.1171 13.4303 38.1171 13.59C38.1171 13.9385 38.0317 14.1926 37.8609 14.3523C37.7327 14.4394 37.5549 14.5338 37.3271 14.6354C37.0995 14.7371 36.9215 14.7879 36.7935 14.7879C36.0248 14.7879 35.477 14.5048 35.1495 13.9385Z" fill="#DFFE14"/>
<path d="M47.979 7.7098C48.0929 7.91309 48.1853 8.21075 48.2563 8.60279C48.3276 8.98028 48.3631 9.32151 48.3631 9.62642C48.3631 10.1927 48.2423 10.9985 48.0002 12.044C47.0181 13.8734 45.5664 14.7882 43.645 14.7882C42.9335 14.7882 42.2076 14.5486 41.4675 14.0695C40.7275 13.5903 40.2152 13.0386 39.9304 12.4142C39.5461 11.1655 39.354 10.3742 39.354 10.0402C39.354 9.45945 39.4751 8.84235 39.7169 8.18897C39.9731 7.53557 40.2934 6.9693 40.6777 6.49016C40.9196 6.1562 41.3538 5.87307 41.98 5.64076C42.6061 5.39391 43.1754 5.27051 43.6879 5.27051C44.684 5.27051 45.5309 5.4665 46.2284 5.85854C46.9257 6.23606 47.5093 6.85314 47.979 7.7098ZM46.1217 11.2163C46.1927 11.0276 46.2284 10.5412 46.2284 9.75709C46.2284 9.33602 46.15 8.92221 45.9935 8.51566C45.8512 8.10911 45.6377 7.76064 45.3529 7.47024C45.3246 7.44119 45.2464 7.39763 45.1182 7.33955C44.99 7.26696 44.8122 7.20161 44.5844 7.14353C44.3709 7.07094 44.1219 7.03464 43.8373 7.03464C43.0402 7.03464 42.4566 7.36133 42.0866 8.01473C41.7167 8.66811 41.5316 9.40862 41.5316 10.2363C41.5316 10.3814 41.5671 10.6573 41.6383 11.0639C41.7236 11.4704 41.7949 11.7245 41.8518 11.8262C41.8945 11.9278 42.0013 12.073 42.1721 12.2618C42.357 12.436 42.5777 12.5957 42.8339 12.7409C43.1043 12.8716 43.3817 12.9369 43.6665 12.9369C44.307 12.9369 44.8194 12.7845 45.2035 12.4796C45.5879 12.1601 45.8938 11.739 46.1217 11.2163Z" fill="#DFFE14"/>
<path d="M58.8608 7.7098C58.9747 7.91309 59.0672 8.21075 59.1384 8.60279C59.2094 8.98028 59.2452 9.32151 59.2452 9.62642C59.2452 10.0185 59.2023 10.4541 59.117 10.9332C59.0316 11.4123 58.9532 11.7826 58.8822 12.044C57.9 13.8734 56.4483 14.7882 54.5271 14.7882C53.8153 14.7882 53.0895 14.5486 52.3495 14.0695C51.6094 13.5903 51.097 13.0386 50.8123 12.4142C50.4281 11.18 50.2358 10.3887 50.2358 10.0402C50.2358 9.45945 50.3569 8.84235 50.5988 8.18897C50.8549 7.53557 51.1752 6.9693 51.5596 6.49016C51.8157 6.1562 52.2568 5.87307 52.8831 5.64076C53.5093 5.39391 54.0786 5.27051 54.591 5.27051C55.5873 5.27051 56.427 5.4665 57.1102 5.85854C57.8075 6.23606 58.3911 6.85314 58.8608 7.7098ZM57.0035 11.2163C57.0745 11.0711 57.1102 10.5847 57.1102 9.75709C57.1102 9.33602 57.0319 8.92221 56.8753 8.51566C56.733 8.10911 56.5195 7.76064 56.235 7.47024C56.2064 7.44119 56.1282 7.39763 56 7.33955C55.8721 7.26696 55.694 7.20161 55.4662 7.14353C55.253 7.07094 55.0037 7.03464 54.7192 7.03464C53.9221 7.03464 53.3385 7.36133 52.9686 8.01473C52.5986 8.66811 52.4134 9.40862 52.4134 10.2363C52.4134 10.3669 52.4561 10.6355 52.5416 11.0421C52.6269 11.4486 52.691 11.71 52.7337 11.8262C52.8476 12.0294 53.0754 12.269 53.4169 12.5449C53.7727 12.8062 54.157 12.9369 54.5698 12.9369C55.2101 12.9369 55.7155 12.7845 56.0853 12.4796C56.4697 12.1601 56.7757 11.739 57.0035 11.2163Z" fill="#DFFE14"/>
<path d="M61.1195 7.03437C61.0058 6.94724 60.9131 6.86013 60.8421 6.773C60.7709 6.67138 60.7354 6.49715 60.7354 6.2503C60.7354 5.97442 60.8278 5.76389 61.0127 5.6187C61.2122 5.45898 61.4398 5.37912 61.6959 5.37912C62.1942 5.37912 62.621 5.50979 62.977 5.77116C63.3469 6.0325 63.6173 6.39551 63.7882 6.86013C64.1013 6.26481 64.4997 5.85826 64.9837 5.64049C65.4675 5.40815 66.1366 5.29199 66.9904 5.29199C67.3321 5.29199 67.6808 5.4009 68.0366 5.6187C68.4066 5.82197 68.741 6.07606 69.04 6.38099C69.2819 6.70041 69.4883 7.09972 69.6591 7.57886C69.8298 8.04349 69.9153 8.46457 69.9153 8.84207C69.9153 9.05987 69.901 9.41561 69.8726 9.90927C69.844 10.432 69.8298 10.8458 69.8298 11.1507C69.8298 12.1671 70.0221 12.7915 70.4062 13.0238C70.4632 13.0528 70.5699 13.0891 70.7265 13.1327C70.883 13.1762 70.9969 13.2198 71.068 13.2633C71.1535 13.3069 71.1961 13.3722 71.1961 13.4593C71.2104 13.8078 71.0823 14.0982 70.8118 14.3305C70.5556 14.5483 70.2425 14.6572 69.8726 14.6572C69.3174 14.6572 68.8835 14.5048 68.5703 14.1999C68.2572 13.8949 68.0366 13.4303 67.9084 12.806C67.8373 12.5737 67.8016 12.2324 67.8016 11.7823C67.8016 11.5355 67.8159 11.1362 67.8445 10.5844C67.8871 10.1488 67.9084 9.68422 67.9084 9.19054C67.9084 8.68235 67.7661 8.2395 67.4816 7.862C67.1968 7.46997 66.8055 7.27395 66.3072 7.27395C66.0084 7.27395 65.6953 7.36833 65.3679 7.55708C65.0407 7.73131 64.8129 7.94911 64.6849 8.21048C64.4714 8.66059 64.3289 9.11795 64.2579 9.58258C64.087 10.4828 64.0017 11.3467 64.0017 12.1743C64.0017 12.3776 64.0158 12.7697 64.0444 13.3505C64.0444 13.394 64.0444 13.5029 64.0444 13.6771C64.0444 13.8369 64.0229 13.9893 63.9803 14.1345C63.9519 14.2797 63.8949 14.4104 63.8094 14.5266C63.7527 14.5846 63.6459 14.6427 63.4894 14.7008C63.3328 14.7589 63.1974 14.7879 63.0835 14.7879C62.8843 14.7879 62.6353 14.7008 62.3365 14.5266C62.0376 14.3523 61.8596 14.1563 61.8027 13.9385L61.7815 13.6336C61.7815 13.5174 61.7955 13.3432 61.8241 13.1109C61.9948 12.0945 62.0803 11.2088 62.0803 10.4538C62.0803 10.1198 62.0732 9.86572 62.0589 9.69149L62.0376 8.68962C62.0376 8.38471 61.9521 8.09432 61.7815 7.81844C61.6106 7.52805 61.39 7.26668 61.1195 7.03437Z" fill="#DFFE14"/>
<path d="M78.7368 9.71327C79.3061 10.0472 79.7045 10.3812 79.9323 10.7151C80.1601 11.0346 80.2738 11.4556 80.2738 11.9783C80.2738 12.501 80.1244 12.9657 79.8256 13.3722C79.5267 13.7643 79.1424 14.0692 78.6727 14.287C78.3312 14.4467 77.9042 14.5701 77.3918 14.6572C76.8938 14.7443 76.5023 14.7879 76.2177 14.7879C75.7195 14.7879 75.1788 14.6935 74.5952 14.5048C74.0116 14.316 73.5135 14.0474 73.1008 13.6989C72.7021 13.3505 72.5029 12.9439 72.5029 12.4793C72.5029 12.1889 72.5956 11.9638 72.7805 11.8041C72.9655 11.6299 73.2076 11.5428 73.5064 11.5428C73.7483 11.5428 74.0044 11.717 74.2749 12.0655C74.5454 12.3704 74.8585 12.6027 75.2143 12.7624C75.5844 12.9221 75.9473 13.002 76.3031 13.002C77.6552 13.002 78.3312 12.6898 78.3312 12.0655C78.3312 11.9348 78.2886 11.8114 78.203 11.6952C78.1177 11.5645 78.0395 11.4774 77.9683 11.4338C77.8401 11.3322 77.6623 11.2451 77.4345 11.1725C77.2069 11.0999 76.9791 11.0418 76.7513 10.9983C76.5237 10.9402 76.3529 10.8966 76.239 10.8676C76.1251 10.8385 75.8832 10.7877 75.5131 10.7151C75.1573 10.6425 74.8158 10.5191 74.4884 10.3449C73.9475 10.0835 73.5064 9.76408 73.1649 9.38656C72.8375 9.00906 72.6738 8.52265 72.6738 7.92733C72.6738 7.59337 72.752 7.25941 72.9085 6.92548C73.0794 6.57699 73.3072 6.31565 73.5917 6.14141C74.0187 5.86553 74.4884 5.655 75.0008 5.50979C75.5131 5.36461 75.9899 5.29199 76.4313 5.29199C76.787 5.29199 77.1855 5.32831 77.6266 5.4009C78.0822 5.4735 78.4094 5.57514 78.6088 5.70581C78.9787 5.9091 79.2491 6.11963 79.42 6.33743C79.5909 6.55523 79.6762 6.83108 79.6762 7.16504C79.6762 7.32476 79.6407 7.48448 79.5694 7.6442C79.4982 7.78939 79.4128 7.89103 79.3132 7.94911C79.0854 8.03624 78.8862 8.07978 78.7154 8.07978C78.5874 8.07978 78.4806 8.058 78.3953 8.01446C78.3098 7.95638 78.2316 7.8983 78.1604 7.84022C78.1034 7.78214 78.0679 7.74582 78.0536 7.73131C77.8687 7.52805 77.6623 7.36833 77.4345 7.25217C77.2069 7.13601 76.8724 7.07793 76.4313 7.07793C76.1465 7.07793 75.8689 7.1215 75.5986 7.2086C75.3425 7.2812 75.143 7.37557 75.0008 7.49175C74.8869 7.57886 74.8087 7.65872 74.766 7.73131C74.7232 7.78939 74.7019 7.86925 74.7019 7.97089C74.7019 8.37744 75.1004 8.6751 75.8975 8.86385C76.7086 9.0526 77.1357 9.15424 77.1783 9.16876C77.2636 9.19781 77.4986 9.2704 77.883 9.38656C78.2814 9.50272 78.5659 9.61163 78.7368 9.71327Z" fill="#DFFE14"/>
<path d="M84.8683 0.892964C84.8683 1.27048 84.8612 1.71333 84.8469 2.22152C84.8326 2.7152 84.8185 3.0927 84.8042 3.35406C84.7616 4.09457 84.7401 4.83507 84.7401 5.57558C84.7401 6.12734 84.7616 6.70085 84.8042 7.29617C85.2453 6.64277 85.7221 6.16363 86.2345 5.8587C86.7468 5.5538 87.3659 5.40134 88.0918 5.40134C88.6184 5.40134 89.1095 5.6409 89.5649 6.12007C90.0203 6.59921 90.3122 7.15824 90.4402 7.7971C90.4829 8.36337 90.5043 9.05304 90.5043 9.86617C90.5043 10.3889 90.5327 11.0713 90.5896 11.9134C90.6182 12.2329 90.6964 12.5305 90.8246 12.8064C90.9668 13.0823 91.166 13.2202 91.4222 13.2202C91.5504 13.2202 91.65 13.213 91.7211 13.1984C91.8066 13.1839 91.8848 13.1767 91.956 13.1767C92.1552 13.1767 92.2903 13.2275 92.3616 13.3291C92.4469 13.4308 92.4898 13.5759 92.4898 13.7647C92.4898 14.1132 92.3189 14.3745 91.9772 14.5488C91.6357 14.723 91.3226 14.8101 91.0381 14.8101C90.0132 14.8101 89.3088 14.3745 88.9244 13.5034C88.7109 13.0097 88.5758 12.3708 88.5188 11.5867C88.4618 10.7882 88.4335 9.8589 88.4335 8.79895C88.4335 7.75353 88.0849 7.23083 87.3874 7.23083C87.003 7.23083 86.6117 7.44136 86.2133 7.86245C85.8289 8.269 85.5086 8.81348 85.2525 9.49591C84.9963 10.1638 84.8683 10.8608 84.8683 11.5867L84.8895 13.8518C84.8895 14.1713 84.7685 14.4108 84.5266 14.5705C84.2847 14.7158 84.0569 14.7883 83.8434 14.7883C83.5303 14.7883 83.2457 14.694 82.9896 14.5052C82.7334 14.3019 82.6052 14.0769 82.6052 13.83C82.7048 12.7411 82.7546 10.9188 82.7546 8.36337C82.7546 7.89874 82.7191 6.17815 82.6479 3.20161L82.584 1.19788C82.584 0.878443 82.7263 0.602569 83.0108 0.370253C83.2955 0.123417 83.6158 0 83.9716 0C84.2847 0 84.5123 0.0725986 84.6548 0.217796C84.7971 0.362994 84.8683 0.588049 84.8683 0.892964Z" fill="#DFFE14"/>
<path d="M102.184 7.7098C102.297 7.91309 102.39 8.21075 102.461 8.60279C102.532 8.98028 102.568 9.32151 102.568 9.62642C102.568 10.033 102.504 10.5412 102.376 11.151C102.248 11.7463 102.141 12.1456 102.055 12.3489C101.287 13.9751 99.8068 14.7882 97.6149 14.7882C96.9174 14.7882 96.2344 14.5559 95.5653 14.0912C94.8964 13.6121 94.4198 13.0531 94.135 12.4142L93.9856 11.9786C93.9713 11.9205 93.8932 11.7027 93.7507 11.3252C93.6227 10.9332 93.5586 10.6355 93.5586 10.4323C93.5586 9.83695 93.7009 9.14727 93.9856 8.3632C94.2702 7.57913 94.5976 6.95478 94.9676 6.49016C95.2095 6.1562 95.6721 5.87307 96.3553 5.64076C97.0385 5.39391 97.6433 5.27051 98.1699 5.27051C99.1519 5.27051 99.9419 5.45926 100.54 5.83676C101.152 6.21428 101.7 6.83863 102.184 7.7098ZM100.219 11.2163C100.276 11.1147 100.326 10.9332 100.369 10.6718C100.412 10.4105 100.433 10.1056 100.433 9.75709C100.433 9.33602 100.355 8.92221 100.198 8.51566C100.056 8.10911 99.8423 7.76064 99.5575 7.47024C99.5434 7.44119 99.4936 7.39763 99.4081 7.33955C99.3228 7.26696 99.1877 7.20161 99.0025 7.14353C98.8176 7.07094 98.5826 7.03464 98.2981 7.03464C97.7429 7.03464 97.2734 7.20161 96.889 7.53557C96.5047 7.86953 96.213 8.28334 96.0138 8.77702C95.8286 9.27068 95.7362 9.75709 95.7362 10.2363C95.7362 10.3669 95.7788 10.6355 95.8644 11.0421C95.9497 11.4486 96.0138 11.71 96.0564 11.8262C96.1703 12.0294 96.391 12.269 96.7182 12.5449C97.0456 12.8062 97.4157 12.9369 97.8284 12.9369C98.4687 12.9369 98.967 12.7845 99.3228 12.4796C99.6928 12.1746 99.9917 11.7536 100.219 11.2163Z" fill="#DFFE14"/>
<path d="M104.613 7.12133C104.414 7.09228 104.25 7.01241 104.122 6.88174C104.008 6.73654 103.951 6.5623 103.951 6.35904C103.951 6.09767 104.051 5.87987 104.25 5.70564C104.293 5.66207 104.364 5.62578 104.464 5.59675C104.563 5.55318 104.641 5.51689 104.698 5.48784C105.011 5.38622 105.211 5.30636 105.296 5.24828C105.623 5.04499 105.844 4.71104 105.958 4.24641C106.072 3.69465 106.143 3.31715 106.171 3.11387C106.2 2.79445 106.299 2.55486 106.47 2.39514C106.655 2.22091 106.883 2.13379 107.153 2.13379C107.509 2.13379 107.758 2.22817 107.901 2.41692C108.043 2.60567 108.114 2.95414 108.114 3.46234C108.114 4.13025 107.957 4.76187 107.644 5.35717C107.844 5.35717 108.171 5.34265 108.627 5.3136C109.31 5.28457 109.786 5.27006 110.057 5.27006C110.299 5.27006 110.505 5.33538 110.676 5.46606C110.861 5.58224 110.954 5.75647 110.954 5.98879C110.954 6.54052 110.704 6.86723 110.206 6.96885C109.751 7.09954 108.925 7.1794 107.73 7.20843C107.63 8.63137 107.58 9.75664 107.58 10.5843C107.58 11.0925 107.602 11.4555 107.644 11.6733C107.73 12.1234 107.872 12.4573 108.071 12.6751C108.285 12.8784 108.598 12.98 109.011 12.98C109.21 12.98 109.509 12.9292 109.907 12.8276C110.149 12.755 110.341 12.7187 110.484 12.7187C110.669 12.7187 110.811 12.784 110.911 12.9147C111.011 13.0454 111.06 13.2196 111.06 13.4374C111.06 13.8294 110.811 14.1561 110.313 14.4175C109.815 14.6643 109.224 14.7877 108.541 14.7877C108.114 14.7877 107.694 14.6861 107.281 14.4828C106.869 14.265 106.52 14.0037 106.235 13.6988C106.179 13.6697 106.093 13.51 105.979 13.2196C105.88 12.9292 105.78 12.6098 105.68 12.2613C105.638 12.0871 105.616 11.666 105.616 10.9981C105.616 10.3592 105.659 9.25572 105.744 7.68757L105.766 7.20843C105.666 7.20843 105.481 7.20116 105.211 7.18665C104.94 7.15762 104.741 7.13584 104.613 7.12133Z" fill="#DFFE14"/>
<path d="M15.5975 12.8574C15.7747 12.4268 15.2683 12.06 14.8436 12.2513C13.9946 12.6315 13.0773 12.8271 12.1502 12.8255C8.51529 12.8255 5.56916 9.88022 5.56916 6.24643C5.56782 5.01954 5.90951 3.81768 6.55409 2.78189C6.80077 2.38493 6.5046 1.83556 6.05294 1.95253C2.57091 2.85897 0 6.02403 0 9.78897C0 14.261 3.62622 17.8859 8.10012 17.8859C11.4875 17.8859 14.3885 15.8081 15.5975 12.8574Z" fill="#DFFE14"/>
<path d="M13.9929 3.78632C14.1637 3.2727 13.518 2.8924 13.1671 3.29931L12.5417 4.02531C12.2881 4.31978 11.9547 4.53106 11.5836 4.63252C11.2125 4.73396 10.8202 4.72104 10.4563 4.59536L9.55883 4.28567C9.05555 4.11225 8.68295 4.77178 9.08262 5.12946L9.79407 5.76664C10.0827 6.02529 10.2898 6.36538 10.3893 6.74395C10.4887 7.12254 10.476 7.52268 10.3528 7.89394L10.0492 8.80948C9.87836 9.3231 10.5241 9.7034 10.8747 9.29566L11.5001 8.56967C11.7537 8.2752 12.0871 8.06392 12.4582 7.96245C12.8293 7.86102 13.2216 7.87394 13.5855 7.99962L14.483 8.30931C14.9865 8.48354 15.3593 7.82483 14.9594 7.46634L14.248 6.82916C13.9593 6.57051 13.7522 6.23042 13.6528 5.85185C13.5534 5.47326 13.566 5.07311 13.6892 4.70186L13.9929 3.78632Z" fill="#DFFE14"/>
</g>
<defs>
<clipPath id="clip0_7133_3135">
<rect width="111" height="18" fill="white"/>
</clipPath>
</defs>
</svg>
