<svg width="36" height="36" viewBox="0 0 36 36" fill="none" xmlns="http://www.w3.org/2000/svg">
<g clip-path="url(#clip0_7625_6464)">
<path d="M16.1119 11.683V7.36818C16.1119 7.20062 15.9583 7.06603 15.7852 7.08475C13.7095 7.30757 11.6958 7.91455 9.86805 8.83347C9.72091 8.90745 9.66816 9.08839 9.75145 9.22654L11.7864 12.6206C11.8596 12.7418 12.0113 12.7917 12.1474 12.74C13.3338 12.2953 14.5794 12.0297 15.8342 11.9628C15.9906 11.9548 16.1128 11.8336 16.1128 11.683H16.1119Z" fill="white"/>
<path d="M8.07649 10.2558C7.9895 10.1105 7.78683 10.0677 7.64709 10.1676C6.95118 10.6622 6.29598 11.205 5.69538 11.7959C4.87268 12.5919 4.14807 13.4716 3.52804 14.4101C3.43828 14.5456 3.48732 14.7283 3.63169 14.8085L6.60877 16.4637C6.73463 16.5341 6.89288 16.5029 6.98357 16.3933C7.47126 15.8023 8.00893 15.2551 8.60213 14.7702C9.01487 14.4297 9.45259 14.1249 9.90512 13.8441C10.0365 13.7622 10.08 13.5982 10.0023 13.4671L8.07742 10.2549L8.07649 10.2558Z" fill="white"/>
<path d="M31.6824 13.8334C30.881 12.7834 29.9602 11.8253 28.9358 10.9919C28.2963 10.4625 27.6152 9.98477 26.9045 9.55517C26.7638 9.47049 26.5769 9.51684 26.4936 9.65499L23.8284 14.1017C23.7552 14.2238 23.7867 14.3762 23.9015 14.4644C24.2374 14.7229 24.5604 14.9956 24.8611 15.2907C25.3775 15.7916 25.83 16.3415 26.2271 16.9217C26.3131 17.0474 26.4815 17.0875 26.6167 17.0126L31.5917 14.2461C31.7416 14.1623 31.7861 13.9689 31.6833 13.8343L31.6824 13.8334Z" fill="white"/>
<path d="M33.076 15.9662C32.9983 15.8254 32.8114 15.7755 32.6679 15.8557L27.5022 18.7284C27.3764 18.7988 27.3245 18.9449 27.3764 19.076C27.7151 19.9307 27.9474 20.8184 28.0529 21.716C28.0695 21.8604 28.1926 21.9691 28.3434 21.9691H34.7029C34.8806 21.9691 35.0213 21.8167 34.9963 21.6474C34.7094 19.6508 34.045 17.7239 33.0751 15.9662H33.076Z" fill="white"/>
<path d="M2.72115 16.5095C2.57031 16.4257 2.37227 16.4863 2.30286 16.6405C1.58381 18.2413 1.13683 19.9454 0.999868 21.6647C0.986912 21.8279 1.1248 21.9687 1.29508 21.9687H4.14167C4.28326 21.9687 4.40172 21.8715 4.42763 21.7378C4.65621 20.5791 5.06247 19.4659 5.61402 18.432C5.6862 18.2965 5.63808 18.1334 5.50205 18.0577L2.72023 16.5104L2.72115 16.5095Z" fill="white"/>
<path d="M18.347 12.0816C19.5538 12.2669 20.7124 12.6351 21.785 13.152C21.9247 13.2197 22.0931 13.1734 22.1709 13.0424L24.726 8.7802C24.813 8.63491 24.75 8.44418 24.5899 8.37644C22.6243 7.55466 20.5144 7.08584 18.4035 7.00028C18.2369 6.99315 18.0972 7.12506 18.0972 7.28549V11.8035C18.0972 11.9434 18.2027 12.0593 18.3461 12.0807L18.347 12.0816Z" fill="white"/>
<path d="M24.405 17.1729C24.5651 16.778 24.1653 16.3903 23.7544 16.5427C21.4492 17.3975 16.016 19.5304 14.1883 21.2791C12.7326 22.6731 12.7252 24.9405 14.1726 26.3425C15.62 27.7445 17.9742 27.7517 19.4299 26.3577C21.2567 24.6081 23.5045 19.3877 24.405 17.1729ZM15.6422 24.937C15.0008 24.3157 15.0036 23.3121 15.6486 22.6945C16.2937 22.0768 17.3357 22.0803 17.977 22.7007C18.6183 23.3219 18.6146 24.3255 17.9705 24.9432C17.3255 25.5609 16.2835 25.5573 15.6422 24.937Z" fill="white"/>
</g>
<defs>
<clipPath id="clip0_7625_6464">
<rect width="34" height="20.4" fill="white" transform="translate(1 7)"/>
</clipPath>
</defs>
</svg>
